<svg width="120" height="120" viewBox="0 0 120 120" fill="none" xmlns="http://www.w3.org/2000/svg">
<path d="M19.7718 38.2255L20.0148 38.2842C22.2015 38.857 24.4582 39.1168 26.7178 39.0557V39.0557C32.65 39.0557 41.1125 37.823 51.8541 35.408C54.3258 34.8545 68 31.5674 70.765 30.8714C95.8092 24.5823 114.175 24.0205 114.335 24.0121L115.625 23.836L115.298 21.7396C114.81 18.4632 113.481 15.3695 111.441 12.7607C109.402 10.1519 106.721 8.11725 103.66 6.85539C100.091 5.53546 96.3031 4.90933 92.4996 5.01058C86.2658 5.01058 78.3813 6.20132 68.4022 8.65827L67.2794 8.93499C63.1906 9.93287 52.3317 12.5995 50.0108 13.2451C27.6227 19.4756 5 20.3728 5 20.3728L5.31837 22.4021C5.91181 26.1674 7.59837 29.6749 10.1682 32.4883C12.738 35.3018 16.0777 37.2969 19.7718 38.2255V38.2255Z" fill="#00518E"/>
<path d="M103.683 44.9014C100.114 43.5951 96.3253 42.9752 92.5212 43.0748C86.2781 43.0748 78.4008 44.2538 68.4118 46.6864L67.2973 46.9604C63.2078 47.9484 52.3473 50.5886 50.0176 51.2279C27.6345 57.3967 5 58.2602 5 58.2602L5.31842 60.2943C5.91153 64.0238 7.59923 67.498 10.1712 70.2839C12.7432 73.0698 16.0857 75.0443 19.7824 75.9613L20.017 76.0194C22.2043 76.5854 24.4612 76.8426 26.7211 76.7832C32.6458 76.7832 41.118 75.5628 51.8612 73.1716C54.2998 72.6236 67.9844 69.369 70.7666 68.6799C95.8229 62.453 114.184 61.8967 114.343 61.8884L115.625 61.7058L115.298 59.6384C114.812 56.3974 113.486 53.3364 111.451 50.7538C109.415 48.1712 106.739 46.1549 103.683 44.9014V44.9014Z" fill="#00518E"/>
<path d="M103.623 82.6472C100.055 81.3264 96.2686 80.7003 92.4665 80.8024C86.235 80.8024 78.3535 81.9931 68.3782 84.45L67.013 84.7855C62.599 85.8672 52.2719 88.408 49.9938 89.0369C27.6225 95.2673 5 96.1561 5 96.1561L5.31825 98.1938C5.91147 101.959 7.59739 105.467 10.1663 108.28C12.7351 111.093 16.0735 113.089 19.7662 114.017L20.0091 114.076C22.1949 114.649 24.4509 114.908 26.7096 114.847V114.847C32.6395 114.847 41.0989 113.615 51.8364 111.2C54.2988 110.646 67.9762 107.359 70.7401 106.663C95.7748 100.374 114.134 99.8122 114.293 99.8038L115.625 99.6361L115.298 97.5146C114.802 94.2372 113.466 91.1447 111.419 88.5389C109.373 85.9332 106.687 83.9032 103.623 82.6472V82.6472Z" fill="#00518E"/>
</svg>
