<svg width="345" height="109" viewBox="0 0 345 109" fill="none" xmlns="http://www.w3.org/2000/svg">
<path d="M43.7998 68.9998C27.3998 61.1998 13.3998 59.2998 0.799805 61.0998C1.0998 63.2998 1.49981 65.4998 1.99981 67.5998C12.9998 70.0998 25.5998 74.9998 39.9998 83.6998C52.6998 91.2998 62.5998 98.6998 70.3998 106.2C73.4998 105.2 76.4998 104 79.2998 102.5C71.3998 88.9998 56.7998 75.1998 43.7998 68.9998Z" fill="white"/>
<path d="M102.5 29.8C98.3999 21.7 92.2999 14.9 84.7999 9.8C80.3999 7.3 76.2999 5.3 72.2999 3.5C66.6999 1.5 60.6999 0.5 54.4999 0.5C52.7999 0.5 51.0999 0.600001 49.3999 0.700001C59.3999 3.3 69.9999 7.5 81.4999 14.3C89.0999 18.9 96.0999 24.2 102.5 29.8Z" fill="white"/>
<path d="M108.5 53.4001C108.4 49.9001 108 46.5001 107.3 43.3001C100.5 32.4001 91.6997 23.8001 80.7997 17.4001C64.1997 7.50006 47.9997 4.50006 33.4997 4.60006C29.9997 6.10006 26.6997 7.90006 23.6997 10.0001C36.9997 11.7001 51.7997 16.2001 68.7997 25.0001C85.2997 33.5001 98.5997 43.0001 108.5 53.4001Z" fill="white"/>
<path d="M34.0999 87.7002C24.2999 83.1002 15.2999 80.8002 6.8999 80.2002C8.3999 83.1002 10.1999 85.8002 12.2999 88.3002C18.8999 90.8002 25.7999 93.9002 32.4999 97.8002C38.1999 101 43.2999 104.6 47.9999 108.2C50.0999 108.4 52.2999 108.6 54.4999 108.6C56.2999 108.6 58.1999 108.5 59.8999 108.3C52.3999 99.8002 42.8999 91.9002 34.0999 87.7002Z" fill="white"/>
<path d="M69.2998 82.8001C63.0998 76.0001 56.2998 70.3001 49.6998 66.6001C36.1998 59.1001 24.2998 55.8001 13.2998 55.6001C22.6998 58.0001 33.0998 61.9001 44.5998 67.9001C54.2998 72.8001 62.3998 77.7001 69.2998 82.8001Z" fill="white"/>
<path d="M71.9998 30.5C47.4998 17 27.8998 17.3 14.2998 18.4H14.1998C11.5998 21.3 9.2998 24.6 7.2998 28C22.9998 28.6 41.3998 32.7 62.7998 45.5C80.2998 56 92.8998 68.1 102 80.2C104.2 76 106 71.5 107.1 66.8C98.5998 50.4 84.7998 37.5 71.9998 30.5Z" fill="white"/>
<path d="M55.9 47.2002C37.7 38.4002 23 35.1002 9.2 36.8002C8.8 36.9002 8.5 36.9002 8.1 37.0002C7.6 37.1002 7.2 37.1002 6.8 37.2002C5.6 37.4002 4.3 37.6002 3.1 37.9002C2.1 41.0002 1.4 44.1002 1 47.4002C15 48.7002 31.3 53.8002 50.7 65.4002C67.5 75.4002 79.8 85.6002 88.7 96.3002C91.5 94.1002 94 91.5002 96.2 88.8002C88.6 71.9002 71.3 54.6002 55.9 47.2002Z" fill="white"/>
<path d="M57.2999 99.6002C51.4999 93.4002 45.0999 88.1002 38.9999 84.7002C26.6999 77.9002 15.5999 74.9002 5.3999 74.7002C14.1999 77.1002 24.0999 80.9002 34.9999 86.5002C43.6999 91.0002 51.0999 95.4002 57.2999 99.6002Z" fill="white"/>
<path d="M17.6997 94.1001C23.9997 100 31.7997 104.3 40.3997 106.7C37.1997 104 33.9997 101.7 30.7997 99.9001C26.2997 97.5001 21.8997 95.6001 17.6997 94.1001Z" fill="white"/>
<path d="M260.3 57.6002H260.4C265.9 57.6002 270.5 56.6002 274.2 54.5002C277.9 52.4002 280.7 49.5002 282.7 45.8002C284.7 42.1002 285.6 37.3002 285.6 31.5002C285.6 27.8002 285.1 24.5002 284.2 21.6002L263.2 19.0002C264.9 19.5002 266.3 20.3002 267.5 21.5002C269.4 23.5002 270.3 27.1002 270.3 31.3002C270.3 36.3002 269.4 39.8002 267.6 41.8002C265.8 43.7002 263.4 44.6002 260.3 44.7002H260.4H222V6.2002H206V57.6002H260.3Z" fill="white"/>
<path d="M173.2 46.6002H143.3L172.1 16.5002V6.2002H127.2V17.2002H153L124.4 47.0002V57.6002H173.2V46.6002Z" fill="white"/>
<path d="M196.9 6.2002H181V57.6002H196.9V6.2002Z" fill="white"/>
<path d="M329.2 6.2002V34.7002L309.8 6.2002H259.9H259.8C251.7 6.2002 245.4 8.50019 240.9 13.0002C236.4 17.5002 234.1 23.8002 234.1 32.0002C234.1 35.7002 234.6 38.9002 235.5 41.8002L256.4 44.4002C254.8 43.9002 253.4 43.1002 252.3 41.9002C250.4 39.9002 249.5 36.6002 249.5 32.1002C249.5 27.6002 250.4 23.7002 252.3 21.7002C254.2 19.7002 256.7 18.7002 259.8 18.7002H259.9H295V57.7002H310V29.4002L329.3 57.6002H344.3V6.2002H329.2Z" fill="white"/>
<path d="M126.6 74.1001H133.5V84.1001H135.7V72.1001H124.4V84.1001H126.6V74.1001Z" fill="white"/>
<path d="M138.3 72.1001V84.1001H140.5V80.0001H146.4C148.4 80.0001 149.2 79.2001 149.2 77.2001V75.0001C149.2 73.0001 148.4 72.2001 146.4 72.2001L138.3 72.1001ZM147.1 75.3001V76.9001C147.1 78.0001 146.8 78.3001 145.6 78.3001H140.5V73.9001H145.6C146.7 73.9001 147.1 74.2001 147.1 75.3001Z" fill="white"/>
<path d="M154.4 72.1001C152.2 72.1001 151.2 73.1001 151.2 75.3001V80.9001C151.2 83.1001 152.2 84.1001 154.4 84.1001H159.8C162 84.1001 163 83.1001 163 80.9001V75.3001C163 73.1001 162 72.1001 159.8 72.1001H154.4ZM160.8 75.7001V80.5001C160.8 81.7001 160.3 82.2001 159.1 82.2001H155.1C153.9 82.2001 153.4 81.8001 153.4 80.5001V75.7001C153.4 74.4001 153.9 74.0001 155.1 74.0001H159.1C160.3 74.0001 160.8 74.5001 160.8 75.7001Z" fill="white"/>
<path d="M172 71.4004V72.9004H168.5C166.3 72.9004 165.3 73.9004 165.3 76.1004V80.1004C165.3 82.3004 166.3 83.3004 168.5 83.3004H172V84.8004H174.1V83.3004H177.6C179.8 83.3004 180.8 82.3004 180.8 80.1004V76.1004C180.8 73.9004 179.8 72.9004 177.6 72.9004H174V71.4004H172ZM172 81.7004H169.3C168.1 81.7004 167.6 81.2004 167.6 80.0004V76.3004C167.6 75.1004 168.1 74.6004 169.3 74.6004H172V81.7004ZM176.8 74.6004C178 74.6004 178.5 75.1004 178.5 76.3004V80.0004C178.5 81.2004 178 81.7004 176.8 81.7004H174V74.6004H176.8Z" fill="white"/>
<path d="M192.9 73.9001V72.1001H183.1V84.1001H193.1V82.3001H185.3V78.7001H192.2V77.0001H185.3V73.9001H192.9Z" fill="white"/>
<path d="M195 75.3V80.9C195 83.1 196 84.1 198.2 84.1H203.2C205.4 84.1 206.4 83.1 206.4 80.9V79.5H204.3V80.5C204.3 81.7 203.8 82.2 202.6 82.2H198.9C197.7 82.2 197.2 81.7 197.2 80.5V75.6C197.2 74.4 197.7 73.9 198.9 73.9H202.6C203.8 73.9 204.3 74.4 204.3 75.6V76.5H206.4V75.2C206.4 73 205.4 72 203.2 72H198.2C196 72.1 195 73.1 195 75.3Z" fill="white"/>
<path d="M220.1 80.9V79.5H218V80.5C218 81.7 217.5 82.2 216.3 82.2H212.6C211.4 82.2 210.9 81.7 210.9 80.5V75.6C210.9 74.4 211.4 73.9 212.6 73.9H216.3C217.5 73.9 218 74.4 218 75.6V76.5H220.1V75.2C220.1 73 219.1 72 216.9 72H211.9C209.7 72 208.7 73 208.7 75.2V80.8C208.7 83 209.7 84 211.9 84H216.9C219.1 84.1 220.1 83.1 220.1 80.9Z" fill="white"/>
<path d="M234.1 84.1001V72.1001H232.2L224.6 80.8001V72.1001H222.5V84.1001H224.2L232 75.3001V84.1001H234.1Z" fill="white"/>
<path d="M239.8 72.1001C237.6 72.1001 236.6 73.1001 236.6 75.3001V80.9001C236.6 83.1001 237.6 84.1001 239.8 84.1001H245.3C247.5 84.1001 248.5 83.1001 248.5 80.9001V75.3001C248.5 73.1001 247.5 72.1001 245.3 72.1001H239.8ZM246.2 75.7001V80.5001C246.2 81.7001 245.7 82.2001 244.5 82.2001H240.5C239.3 82.2001 238.8 81.8001 238.8 80.5001V75.7001C238.8 74.4001 239.3 74.0001 240.5 74.0001H244.5C245.7 74.0001 246.2 74.5001 246.2 75.7001Z" fill="white"/>
<path d="M262.1 84.1001V72.1001H260V76.9001H253V72.1001H250.8V84.1001H253V78.8001H260V84.1001H262.1Z" fill="white"/>
<path d="M274.9 84.1001H277.3L271.7 72.1001H269.3L263.7 84.1001H266L267.1 81.5001H273.6L274.9 84.1001ZM268 79.8001L270.5 74.0001L273 79.8001H268Z" fill="white"/>
<path d="M282 81.2L282.5 74H287.9V84H290.1V72H280.4L279.8 80.7C279.8 81.8 279.4 82.1 278.3 82.1H277.9V84H279C281 84.1 281.9 83.3 282 81.2Z" fill="white"/>
<path d="M292.6 72.1001V84.1001H300.7C302.7 84.1001 303.5 83.3001 303.5 81.3001V79.1001C303.5 77.1001 302.7 76.3001 300.7 76.3001H294.8V72.2001L292.6 72.1001ZM300 77.9001C301.1 77.9001 301.5 78.2001 301.5 79.3001V80.9001C301.5 82.0001 301.2 82.3001 300 82.3001H294.9V77.9001H300Z" fill="white"/>
<path d="M305.7 72.1001V84.1001H307.9V78.8001H314.8V84.1001H317V72.1001H314.8V76.9001H307.9V72.1001H305.7Z" fill="white"/>
<path d="M329.7 84.1001H332.1L326.5 72.1001H324.1L318.5 84.1001H320.8L321.9 81.5001H328.4L329.7 84.1001ZM322.8 79.8001L325.3 74.0001L327.8 79.8001H322.8Z" fill="white"/>
<path d="M333.2 75.0001V76.7001C333.2 78.7001 334 79.5001 336 79.5001L332.7 84.1001H335.2L338.3 79.6001H342V84.1001H344.2V72.1001H336C334 72.1001 333.2 72.9001 333.2 75.0001ZM342 73.8001V78.0001H336.9C335.8 78.0001 335.4 77.7001 335.4 76.6001V75.3001C335.4 74.2001 335.7 73.9001 336.9 73.9001L342 73.8001Z" fill="white"/>
<path d="M134 92.9004H131.3L126.2 97.5004V92.9004H124.4V102.8H126.2V97.9004L131.4 102.8H134L128.5 97.7004L134 92.9004Z" fill="white"/>
<path d="M136 100.1C136 101 135.7 101.3 134.8 101.3H134.5V102.9H135.4C137 102.9 137.7 102.2 137.8 100.5L138.2 94.6H142.6V102.9H144.4V93H136.4L136 100.1Z" fill="white"/>
<path d="M148.1 100.1V92.9004H146.4V102.8H147.8L154.3 95.5004V102.8H156V92.9004H154.5L148.1 100.1Z" fill="white"/>
<path d="M163.5 99.0004L159.6 92.9004H158V102.8H159.7V95.9004L163 100.9H164L167.3 95.9004V102.8H169V92.9004H167.5L163.5 99.0004Z" fill="white"/>
<path d="M174.8 92.9004L170.2 102.8H172.1L173 100.6H178.4L179.4 102.8H181.4L176.8 92.9004H174.8ZM173.6 99.2004L175.7 94.4004L177.8 99.2004H173.6Z" fill="white"/>
<path d="M179.5 94.5004H183.2V102.8H185V94.5004H188.7V92.9004H179.5V94.5004Z" fill="white"/>
<path d="M191.7 100.1V92.9004H189.9V102.8H191.4L197.8 95.5004V102.8H199.6V92.9004H198L191.7 100.1Z" fill="white"/>
<path d="M208.3 97.6004H204.1C203.2 97.6004 202.9 97.3004 202.9 96.4004V92.9004H201V96.9004C201 98.6004 201.7 99.3004 203.4 99.3004H208.3V102.9H210.1V93.0004H208.3V97.6004Z" fill="white"/>
<path d="M213.9 98.4004H219.6V96.9004H213.9V94.4004H220.1V92.9004H212V102.8H220.3V101.3H213.9V98.4004Z" fill="white"/>
<path d="M228.4 92.9004H224.2C222.4 92.9004 221.6 93.7004 221.6 95.5004V100.1C221.6 101.9 222.4 102.7 224.2 102.7H228.4C230.2 102.7 231 101.9 231 100.1V99.0004H229.2V99.9004C229.2 100.9 228.8 101.3 227.8 101.3H224.8C223.8 101.3 223.4 100.9 223.4 99.9004V95.9004C223.4 94.9004 223.8 94.5004 224.8 94.5004H227.8C228.8 94.5004 229.2 94.9004 229.2 95.9004V96.6004H231V95.5004C231.1 93.7004 230.3 92.9004 228.4 92.9004Z" fill="white"/>
<path d="M242.4 92.9004H239.7L234.6 97.5004V92.9004H232.8V102.8H234.6V97.9004L239.8 102.8H242.5L236.9 97.7004L242.4 92.9004Z" fill="white"/>
<path d="M247.4 92.9004L242.8 102.8H244.7L245.7 100.6H251.1L252.1 102.8H254.1L249.5 92.9004H247.4ZM246.2 99.2004L248.3 94.4004L250.4 99.2004H246.2Z" fill="white"/>
<path d="M254.6 95.2004V96.6004C254.6 98.2004 255.3 98.9004 256.9 99.0004L254.2 102.8H256.2L258.8 99.1004H261.9V102.8H263.7V92.9004H257C255.3 92.9004 254.6 93.5004 254.6 95.2004ZM261.9 94.3004V97.7004H257.7C256.8 97.7004 256.5 97.4004 256.5 96.5004V95.4004C256.5 94.5004 256.8 94.2004 257.7 94.2004L261.9 94.3004Z" fill="white"/>
<path d="M269.3 94.5004H272.9V102.8H274.8V94.5004H278.4V92.9004H269.3V94.5004Z" fill="white"/>
<path d="M281.5 98.4004H287.2V96.9004H281.5V94.4004H287.8V92.9004H279.6V102.8H287.9V101.3H281.5V98.4004Z" fill="white"/>
<path d="M298.9 92.9004H296.8L293.9 96.8004L290.9 92.9004H288.7L292.6 97.8004L288.5 102.8H290.6L293.7 98.7004L296.8 102.8H299L295 97.8004L298.9 92.9004Z" fill="white"/>
<path d="M307.7 96.8004H302V92.9004H300.1V102.8H302V98.4004H307.7V102.8H309.5V92.9004H307.7V96.8004Z" fill="white"/>
<path d="M313.2 100.1V92.9004H311.4V102.8H312.9L319.3 95.5004V102.8H321.1V92.9004H319.5L313.2 100.1Z" fill="white"/>
<path d="M332.6 92.9004H329.9L324.8 97.5004V92.9004H323V102.8H324.8V97.9004L330 102.8H332.6L327.1 97.7004L332.6 92.9004Z" fill="white"/>
<path d="M337.5 92.9004L332.9 102.8H334.8L335.8 100.6H341.2L342.2 102.8H344.2L339.6 92.9004H337.5ZM336.4 99.2004L338.5 94.4004L340.6 99.2004H336.4Z" fill="white"/>
</svg>
